{"title":"Hot.Pursuit.2015.BRRiP.XViD.AC3.5.1.ReLeNTLesS","uid":12166653,"size":1129350308,"categoryP":"video","categoryS":"movies","magnet":"?xt=urn:btih:627d337947c88c3b07002bd80bd2c23ac200f759&amp;dn=Hot.Pursuit.2015.BRRiP.XViD.AC3.5.1.ReLeNTLesS&amp;tr=udp%3A%2F%2Ftracker.openbittorrent.com%3A80&amp;tr=udp%3A%2F%2Fopen.demonii.com%3A1337&amp;tr=udp%3A%2F%2Ftracker.coppersurfer.tk%3A6969&amp;tr=udp%3A%2F%2Fexodus.desync.com%3A6969","seeders":0,"leechers":0,"uploader":"TvTeam","files":4,"time":1438055537,"description":"------------------------------------------------------------------------\n\n &lt;a href=&quot; https://www.torrenting.com&quot; rel=&quot;nofollow&quot; target=&quot;_NEW&quot;&gt; https://www.torrenting.com&lt;/a&gt;\n\nSign up is OPEN - for time being. Come and have fun\n\n.......................................................................................................................P0STER\n[img]http://i.imgur.com/XvnDX71.png[/img]\n\niMDB: http://www.imdb.com/title/tt2967224/\n\nGeneral\nComplete name               : Hot.Pursuit.2015.BRRiP.XViD.AC3.5.1.ReLeNTLesS.avi\nFormat                      : AVI\nFormat/Info                 : Audio Video Interleave\nFile size                   : 1.04 GiB\nDuration                    : 1h 27mn\nOverall bit rate            : 1 703 Kbps\n\nVideo\nID                          : 0\nFormat                      : MPEG-4 Visual\nFormat profile              : Advanced Simple@L5\nFormat settings, BVOP       : 1\nFormat settings, QPel       : No\nFormat settings, GMC        : No warppoints\nFormat settings, Matrix     : Default (H.263)\nMuxing mode                 : Packed bitstream\nCodec ID                    : XVID\nCodec ID/Hint               : XviD\nDuration                    : 1h 27mn\nBit rate                    : 1 503 Kbps\nWidth                       : 720 pixels\nHeight                      : 304 pixels\nDisplay aspect ratio        : 2.35:1\nFrame rate                  : 23.976 fps\nColor space                 : YUV\nChroma subsampling          : 4:2:0\nBit depth                   : 8 bits\nScan type                   : Progressive\nCompression mode            : Lossy\nBits/(Pixel*Frame)          : 0.286\nStream size                 : 941 MiB (88%)\nWriting library             : XviD 1.2.1 (UTC 2008-12-04)\n\nAudio\nID                          : 1\nFormat                      : AC-3\nFormat/Info                 : Audio Coding 3\nMode extension              : CM (complete main)\nFormat settings, Endianness : Big\nCodec ID                    : 2000\nDuration                    : 1h 27mn\nBit rate mode               : Constant\nBit rate                    : 192 Kbps\nChannel(s)                  : 6 channels\nChannel positions           : Front: L C R, Side: L R, LFE\nSampling rate               : 48.0 KHz\nCompression mode            : Lossy\nStream size                 : 120 MiB (11%)\nAlignment                   : Aligned on interleaves\nInterleave, duration        : 64 ms (1.53 video frames)\nInterleave, preload duratio : 192 ms\nTitle                       : Hot.Pursuit.2015.ReLeNTLesS.audio.AC3.5.1.English\nSample Included             : Yes\nSource                      : GECKOS Thanks\n\nPL0T\nAn uptight and by-the-book cop tries to protect the outgoing widow of a drug boss as they race through Texas pursued by crooked cops and murderous gunmen.\n\nCAST\nDirector: Anne Fletcher\nWriters: David Feeney, John Quaintance\nStars: Reese Witherspoon, Sofa Vergara, Matthew Del Negro\n\nN0TE\nHardcoded Subs for None English Parts\n\nSCREENS\n[img]http://i.imgur.com/n5fHsrv.png[/img]\n[img]http://i.imgur.com/51ZtUEJ.png[/img]\n[img]http://i.imgur.com/28sBTGa.png[/img]\n[img]http://i.imgur.com/AaE4ser.png[/img]\n[img]http://i.imgur.com/5gskOhv.png[/img]\n[img]http://i.imgur.com/a482T3k.png[/img]\n\nTRAiLER\n\nGREETZ\n\n\nHIVE-CM8, Blackjesus, M0RPH, M00SE, MiLLENiUM,\n\nMANiX, TiTAN, Anonymous, TuX, \n\nACAB, KingStoner, FooKas, 4PlayHD, \n\nGodFather, Cld.... \n\nKeep up the good work guyz","torrent":{"xt":"urn:btih:627d337947c88c3b07002bd80bd2c23ac200f759","amp;dn":"Hot.Pursuit.2015.BRRiP.XViD.AC3.5.1.ReLeNTLesS","amp;tr":["udp%3A%2F%2Ftracker.openbittorrent.com%3A80","udp%3A%2F%2Fopen.demonii.com%3A1337","udp%3A%2F%2Ftracker.coppersurfer.tk%3A6969","udp%3A%2F%2Fexodus.desync.com%3A6969"],"infoHash":"627d337947c88c3b07002bd80bd2c23ac200f759","infoHashBuffer":{"type":"Buffer","data":[98,125,51,121,71,200,140,59,7,0,43,216,11,210,194,58,194,0,247,89]},"announce":[],"urlList":[]}}